<?xml version="1.0" encoding="utf-8"?>
<!-- Generator: Adobe Illustrator 25.1.0, SVG Export Plug-In . SVG Version: 6.00 Build 0)  -->
<svg version="1.1" id="Calque_1" xmlns="http://www.w3.org/2000/svg" xmlns:xlink="http://www.w3.org/1999/xlink" x="0px" y="0px"
	 viewBox="0 0 500 500" style="enable-background:new 0 0 500 500;" xml:space="preserve">
<style type="text/css">
	.st0{fill:url(#SVGID_1_);}
	.st1{fill:#29B2EB;}
	.st2{fill:#0095FF;}
	.st3{fill:#EBE9EB;}
	.st4{fill:#D8D2D7;}
	.st5{fill:#685E68;}
	.st6{fill:#554E56;}
	.st7{fill:#FF712F;}
	.st8{fill:#FF4949;}
</style>
<linearGradient id="SVGID_1_" gradientUnits="userSpaceOnUse" x1="62.0787" y1="250" x2="437.9214" y2="250">
	<stop  offset="0" style="stop-color:#FF4949"/>
	<stop  offset="0.3059" style="stop-color:#FF4E46"/>
	<stop  offset="0.6454" style="stop-color:#FF5B3D"/>
	<stop  offset="1" style="stop-color:#FF712F"/>
</linearGradient>
<circle class="st0" cx="250" cy="250" r="187.9"/>
<g>
	<path class="st1" d="M361.1,240.8v105.9c0,1.2-1,2.2-2.2,2.2c0,0-163.4,0-217.9,0c-1.2,0-2.2-1-2.2-2.2c0-26.5,0-105.9,0-105.9
		c0-1.1,0.9-2.1,2.1-2.2c13.1-0.6,21.1-7.3,24.2-10.5c0.8-0.9,2.3-0.9,3.1,0c13.8,14.2,38.6,14.2,52.4,0c0.8-0.9,2.2-0.9,3.1,0
		c6.5,6.7,15.4,10.6,26.2,10.6c10.9,0,19.8-4,26.2-10.6c0.8-0.9,2.2-0.9,3.1,0c6.5,6.7,15.4,10.6,26.2,10.6c10.9,0,19.8-4,26.2-10.6
		c0.8-0.9,2.3-0.9,3.1,0c6.3,6.4,14.5,10.1,24.1,10.6C360.2,238.7,361.1,239.7,361.1,240.8L361.1,240.8z"/>
	<path class="st2" d="M361.1,240.8v105.9c0,1.2-1,2.2-2.2,2.2H250V238.7c10.9,0,19.8-4,26.2-10.6c0.8-0.9,2.2-0.9,3.1,0
		c6.5,6.7,15.4,10.6,26.2,10.6c10.9,0,19.8-4,26.2-10.6c0.8-0.9,2.3-0.9,3.1,0c6.3,6.4,14.5,10.1,24.1,10.6
		C360.2,238.7,361.1,239.7,361.1,240.8L361.1,240.8z"/>
	<path class="st3" d="M353.1,297.4c-0.8,22.3-19.3,40.6-42,40.6c-22.9,0-41.3-18.4-42-40.7c-0.4-14.2,6.2-26.9,16.6-34.8
		c0.5-0.4,0.9-1.1,0.9-1.8V151.3c0-13.6,11-24.5,24.6-24.6c13.7,0,24.6,11.3,24.6,24.9v109c0,0.7,0.3,1.3,0.8,1.7
		C346.9,270.3,353.6,283.1,353.1,297.4L353.1,297.4z"/>
	<path class="st4" d="M353.1,297.4c-0.8,22.3-19.3,40.6-42,40.6V126.7c13.7,0,24.6,11.3,24.6,24.9v109c0,0.7,0.3,1.3,0.8,1.7
		C346.9,270.3,353.6,283.1,353.1,297.4L353.1,297.4z"/>
	<path class="st5" d="M317.6,154.2v29.8l-6.5,5.7l-6.5-5.7v-29.8c0-3.6,2.9-6.5,6.5-6.5S317.6,150.6,317.6,154.2z"/>
	<path class="st6" d="M317.6,154.2v29.8l-6.5,5.7v-42C314.7,147.7,317.6,150.6,317.6,154.2z"/>
	<path class="st7" d="M331.4,297.8c0,11.2-9.1,20.3-20.3,20.3c-10.9,0-19.7-8.6-20.3-19.2c-0.5-9.1,5-17,12.9-20.1
		c0.5-0.2,0.8-0.7,0.8-1.2v-93.7h13.1v93.7c0,0.5,0.3,1,0.8,1.2C326,281.8,331.4,289.2,331.4,297.8L331.4,297.8z"/>
	<path class="st8" d="M331.4,297.8c0,11.2-9.1,20.3-20.3,20.3V183.9h6.5v93.7c0,0.5,0.3,1,0.8,1.2
		C326,281.8,331.4,289.2,331.4,297.8z"/>
	<g>
		<circle class="st3" cx="210.6" cy="276.5" r="11.4"/>
		<circle class="st3" cx="171" cy="315" r="14.4"/>
		<path class="st3" d="M161.9,155.1c2.6-2.6,2.6-6.7,0-9.2c-2.6-2.6-6.7-2.6-9.2,0c-9.2,9.2-9.2,24.1,0,33.3
			c4.1,4.1,4.1,10.7,0,14.8c-2.6,2.6-2.6,6.7,0,9.2c2.6,2.6,6.7,2.6,9.2,0c9.2-9.2,9.2-24.1,0-33.3
			C157.8,165.8,157.8,159.2,161.9,155.1z"/>
		<path class="st3" d="M195.6,155.1c2.6-2.6,2.6-6.7,0-9.2c-2.6-2.6-6.7-2.6-9.2,0c-9.2,9.2-9.2,24.1,0,33.3
			c4.1,4.1,4.1,10.7,0,14.8c-2.6,2.6-2.6,6.7,0,9.2c2.6,2.6,6.7,2.6,9.2,0c9.2-9.2,9.2-24.1,0-33.3
			C191.6,165.8,191.6,159.2,195.6,155.1z"/>
		<path class="st3" d="M229.4,169.9c-4.1-4.1-4.1-10.7,0-14.8c2.6-2.6,2.6-6.7,0-9.2c-2.6-2.6-6.7-2.6-9.2,0
			c-9.2,9.2-9.2,24.1,0,33.3c4.1,4.1,4.1,10.7,0,14.8c-2.6,2.6-2.6,6.7,0,9.2c2.6,2.6,6.7,2.6,9.2,0
			C238.5,193.9,238.5,179,229.4,169.9z"/>
	</g>
</g>
</svg>
