<?xml version="1.0" encoding="utf-8"?>
<!-- Generator: Adobe Illustrator 25.2.1, SVG Export Plug-In . SVG Version: 6.00 Build 0)  -->
<svg version="1.1" id="Calque_1" xmlns="http://www.w3.org/2000/svg" xmlns:xlink="http://www.w3.org/1999/xlink" x="0px" y="0px"
	 viewBox="0 0 1000 500" style="enable-background:new 0 0 1000 500;" xml:space="preserve">
<style type="text/css">
	.allinfos-st0{fill:#FFFFFF;}
	.allinfos-st1{display:none;}
	.allinfos-st2{display:inline;}
	.allinfos-st3{fill:#E03268;}
	.allinfos-st4{fill:#005A5C;}
</style>
<g id="Fond">
	<g>
		<g>
			<g>
				<g>
					<path class="allinfos-st0" d="M829.8,363.2H170.2C107.7,363.2,57,312.5,57,250l0,0c0-62.5,50.7-113.2,113.2-113.2h659.5
						c62.5,0,113.2,50.7,113.2,113.2l0,0C943,312.5,892.3,363.2,829.8,363.2z"/>
				</g>
			</g>
		</g>
	</g>
</g>
<g id="Logo_-_Stake_1_" class="allinfos-st1">
	<g class="allinfos-st2">
		<g>
			<g>
				<g>
					<path class="allinfos-st3" d="M262.1,184.1H161.3c-8.5,0-15.4,6.9-15.4,15.4v20.6h10.3v-20.6c0-2.8,2.3-5.1,5.1-5.1h100.8
						c2.8,0,5.1,2.3,5.1,5.1v100.8c0,2.8-2.3,5.1-5.1,5.1H161.3c-2.8,0-5.1-2.3-5.1-5.1v-20.6h-10.3v20.6c0,8.5,6.9,15.4,15.4,15.4
						h100.8c8.5,0,15.4-6.9,15.4-15.4V199.6C277.5,191.1,270.6,184.1,262.1,184.1z"/>
				</g>
			</g>
			<g>
				<g>
					<polygon class="allinfos-st3" points="207.6,218 200.3,225.3 219.8,244.9 145.8,244.9 145.8,255.1 219.8,255.1 200.3,274.7 207.6,282 
						239.5,250 					"/>
				</g>
			</g>
		</g>
	</g>
</g>
<g>
	<g>
		<g>
			<path class="allinfos-st4" d="M155.7,236.9c2,2,5.4,2,7.4,0l6.8-6.8c2-2,2-5.4,0-7.4l-6.8-6.8h93.1c8.7,0,15.7,7,15.7,15.7
				c0,4.3,3.5,7.9,7.9,7.9h5.2c4.3,0,7.9-3.5,7.9-7.9c0-20.2-16.4-36.6-36.6-36.6h-93.1l6.8-6.8c2-2,2-5.4,0-7.4l-6.8-6.8
				c-2-2-5.4-2-7.4,0l-29.6,29.6c-1,1-1,2.7,0,3.7L155.7,236.9z"/>
			<path class="allinfos-st4" d="M262.6,263.1c-2-2-5.4-2-7.4,0l-6.8,6.8c-2,2-2,5.4,0,7.4l6.8,6.8h-93.1c-8.7,0-15.7-7-15.7-15.7
				c0-4.3-3.5-7.9-7.9-7.9h-5.2c-4.3,0-7.9,3.5-7.9,7.9c0,20.2,16.4,36.6,36.6,36.6h93.1l-6.8,6.8c-2,2-2,5.4,0,7.4l6.8,6.8
				c2,2,5.4,2,7.4,0l29.6-29.6c1-1,1-2.7,0-3.7L262.6,263.1z"/>
		</g>
	</g>
	<g>
		<path class="allinfos-st4" d="M395.8,271.4h-25l-4.4,11.5h-22.6l28.8-65.8h21.8l28.8,65.8h-22.9L395.8,271.4z M389.7,255.5l-6.4-16.6
			l-6.4,16.6H389.7z"/>
		<path class="allinfos-st4" d="M426.8,217.1h22.2v48.6h29.7v17.2h-51.9V217.1z"/>
		<path class="allinfos-st4" d="M484.8,217.1H507v48.6h29.7v17.2h-51.9V217.1z"/>
		<path class="allinfos-st4" d="M571,217.1h22.2v65.8H571V217.1z"/>
		<path class="allinfos-st4" d="M668.8,217.1v65.8h-18.2l-25-29.9v29.9h-21.6v-65.8h18.2l25,29.9v-29.9H668.8z"/>
		<path class="allinfos-st4" d="M701.7,233.8v11.3h27.5v16.7h-27.5v21.1h-22.2v-65.8H733v16.7H701.7z"/>
		<path class="allinfos-st4" d="M737,250c0-19.9,15.7-34.4,37.1-34.4s37.1,14.5,37.1,34.4s-15.7,34.4-37.1,34.4S737,269.9,737,250z
			 M788.9,250c0-10.3-6.6-16.5-14.8-16.5s-14.8,6.2-14.8,16.5c0,10.2,6.6,16.5,14.8,16.5S788.9,260.2,788.9,250z"/>
		<path class="allinfos-st4" d="M815.2,277.6l7.1-16.2c6.2,3.7,14.5,6,21.7,6c6.3,0,8.6-1.3,8.6-3.6c0-8.3-36.4-1.6-36.4-26.1
			c0-12.2,10.2-22.2,30.7-22.2c8.8,0,18,1.9,24.8,5.7l-6.7,16.1c-6.5-3.3-12.6-4.9-18.3-4.9c-6.5,0-8.6,1.9-8.6,4.1
			c0,7.9,36.4,1.3,36.4,25.6c0,12-10.2,22.2-30.7,22.2C832.9,284.4,821.8,281.7,815.2,277.6z"/>
	</g>
</g>
</svg>
