<?xml version="1.0" encoding="utf-8"?>
<!-- Generator: Adobe Illustrator 25.2.1, SVG Export Plug-In . SVG Version: 6.00 Build 0)  -->
<svg version="1.1" id="Calque_1" xmlns="http://www.w3.org/2000/svg" xmlns:xlink="http://www.w3.org/1999/xlink" x="0px" y="0px"
	 viewBox="0 0 180 50" style="enable-background:new 0 0 180 50;" xml:space="preserve">
<style type="text/css">
	.st0{fill:#FFFFFF;}
	.st1{fill:#B2B2B2;}
	.st2{fill:#4FD8DF;}
</style>
<path class="st0" d="M146.1,47.1H33.9c-12.4,0-22.5-10.1-22.5-22.5v0c0-12.4,10.1-22.5,22.5-22.5h112.2c12.4,0,22.5,10.1,22.5,22.5
	v0C168.6,37,158.5,47.1,146.1,47.1z"/>
<g>
	<path class="st1" d="M57.7,26.3h-5.5L51.1,29H50l4.5-9.8h1L60,29h-1.1L57.7,26.3z M57.3,25.5L55,20.2l-2.4,5.3H57.3z"/>
	<path class="st1" d="M68,18.6V29h-1v-1.5c-0.6,1-1.6,1.5-2.8,1.5c-2.1,0-3.7-1.5-3.7-3.8s1.6-3.7,3.7-3.7c1.2,0,2.2,0.5,2.8,1.5
		v-4.4H68z M67.1,25.3c0-1.7-1.2-2.9-2.7-2.9c-1.6,0-2.7,1.1-2.7,2.9c0,1.7,1.2,2.9,2.7,2.9C65.9,28.1,67.1,27,67.1,25.3z"/>
	<path class="st1" d="M77.5,18.6V29h-1v-1.5C76,28.5,75,29,73.7,29c-2.1,0-3.7-1.5-3.7-3.8s1.6-3.7,3.7-3.7c1.2,0,2.2,0.5,2.8,1.5
		v-4.4H77.5z M76.6,25.3c0-1.7-1.2-2.9-2.7-2.9c-1.6,0-2.7,1.1-2.7,2.9c0,1.7,1.2,2.9,2.7,2.9C75.4,28.1,76.6,27,76.6,25.3z"/>
	<path class="st2" d="M83.4,19.2h3.3v7.2h4.4V29h-7.7V19.2z"/>
	<path class="st2" d="M92,19.2h3.3V29H92V19.2z"/>
	<path class="st2" d="M108.1,30.2c-0.7,0.8-1.7,1.2-2.9,1.2c-1.7,0-2.8-0.5-4.6-2.4c-2.5-0.5-4.2-2.5-4.2-5c0-3,2.3-5.1,5.5-5.1
		c3.2,0,5.5,2.2,5.5,5.1c0,2.2-1.2,3.9-3.2,4.7c0.3,0.3,0.6,0.4,0.9,0.4c0.5,0,1-0.2,1.4-0.6L108.1,30.2z M99.9,24.1
		c0,1.5,1,2.5,2.2,2.5c1.2,0,2.2-0.9,2.2-2.5s-1-2.5-2.2-2.5C100.8,21.6,99.9,22.5,99.9,24.1z"/>
	<path class="st2" d="M108.7,24.5v-5.4h3.3v5.3c0,1.5,0.6,2.1,1.5,2.1c0.9,0,1.5-0.6,1.5-2.1v-5.3h3.2v5.4c0,2.9-1.8,4.6-4.8,4.6
		S108.7,27.5,108.7,24.5z"/>
	<path class="st2" d="M119.8,19.2h3.3V29h-3.3V19.2z"/>
	<path class="st2" d="M124.7,19.2h4.8c3.3,0,5.5,1.9,5.5,4.9c0,3-2.3,4.9-5.5,4.9h-4.8V19.2z M129.4,26.4c1.4,0,2.3-0.8,2.3-2.3
		c0-1.5-1-2.3-2.3-2.3H128v4.7H129.4z"/>
	<path class="st2" d="M136.2,19.2h3.3V29h-3.3V19.2z"/>
	<path class="st2" d="M143.3,21.7h-2.9v-2.6h9v2.6h-2.9V29h-3.3V21.7z"/>
	<path class="st2" d="M155.8,25.4V29h-3.3v-3.6l-3.7-6.2h3.5l2,3.4l2-3.4h3.2L155.8,25.4z"/>
</g>
<g>
	<defs>
		<circle id="SVGID_1_" cx="31.9" cy="24.3" r="12.4"/>
	</defs>
	<clipPath id="SVGID_2_">
		<use xlink:href="#SVGID_1_"  style="overflow:visible;"/>
	</clipPath>
	<g style="clip-path:url(#SVGID_2_);">
		
			<image style="overflow:visible;" width="200" height="200" xlink:href="../TeaSwap_Design/Design_Ressources/PancakeSwap_Logo.png"  transform="matrix(0.1291 0 0 0.1291 18.9921 11.3724)">
		</image>
	</g>
</g>
</svg>
