<?xml version="1.0" encoding="utf-8"?>
<!-- Generator: Adobe Illustrator 25.2.1, SVG Export Plug-In . SVG Version: 6.00 Build 0)  -->
<svg version="1.1" id="Calque_1" xmlns="http://www.w3.org/2000/svg" xmlns:xlink="http://www.w3.org/1999/xlink" x="0px" y="0px"
	 viewBox="0 0 511 511" style="enable-background:new 0 0 511 511;" xml:space="preserve">
<style type="text/css">
	.st0{fill:#005A5C;}
</style>
<g>
	<path class="st0" d="M301.1,223.8c-1.5,1.5-1.6,4.3,2.9,8.7c4.5,4.5,7.3,4.3,8.7,2.9c1.5-1.5,1.6-4.3-2.9-8.7
		C305.4,222.2,302.6,222.3,301.1,223.8z"/>
	<path class="st0" d="M244.8,236c-1.5,1.5-1.6,4.3,2.9,8.7c4.5,4.5,7.3,4.3,8.7,2.9c1.5-1.5,1.6-4.3-2.9-8.7
		C249.1,234.4,246.3,234.6,244.8,236z"/>
	<path class="st0" d="M502.4,20.5c-0.2-7.8-6.5-14.1-14.4-14.4L285.9,0c-4.1-0.1-8.1,1.5-11,4.4L25.4,256.5
		c-30.6,30.9-30.6,81.2,0,112l118,119.2c14.9,15,34.6,23.3,55.7,23.3c21,0,40.8-8.3,55.7-23.3l249.5-252.1c2.9-2.9,4.4-6.8,4.3-10.9
		L502.4,20.5z M208.9,352.4l-12-12l-36.3,36.3l-15-15l-13.3-72.8l24.2-24.2l13.3,66.2l9.5-9.5l-10.7-10.7l22.2-22.2l10.7,10.7
		l9.3-9.3l18.3,18.3l-9.3,9.3l12,12L208.9,352.4z M263.7,254.8c-7.1,7.1-17.1,7.7-25.4-0.6c-8.3-8.3-7.7-18.4-0.6-25.4
		s17.2-7.7,25.4,0.6C271.4,237.8,270.7,247.8,263.7,254.8z M280.5,280.7l-14.8-78.6l11.3-11.3l14.8,78.6L280.5,280.7z M319.9,242.6
		c-7.1,7.1-17.1,7.7-25.4-0.6c-8.3-8.3-7.7-18.4-0.6-25.4s17.2-7.7,25.4,0.6C327.7,225.5,327,235.6,319.9,242.6z M415.4,157.1
		c-8.7,8.7-20.1,13-31.5,13c-11.4,0-22.8-4.3-31.5-13c-8.4-8.4-13-19.6-13-31.5c0-11.9,4.6-23,13-31.5c17.3-17.3,45.6-17.3,62.9,0
		C432.8,111.6,432.8,139.8,415.4,157.1z"/>
</g>
</svg>
