<?xml version="1.0" encoding="utf-8"?>
<!-- Generator: Adobe Illustrator 25.2.1, SVG Export Plug-In . SVG Version: 6.00 Build 0)  -->
<svg version="1.1" id="Calque_1" xmlns="http://www.w3.org/2000/svg" xmlns:xlink="http://www.w3.org/1999/xlink" x="0px" y="0px"
	 viewBox="0 0 1000 500" style="enable-background:new 0 0 1000 500;" xml:space="preserve">
<style type="text/css">
	.approve-st0{fill:#005A5C;}
	<!-- .approve-st1{enable-background:new    ;} -->
	.approve-st2{fill:#FFFFFF;}
	.approve-st3{display:none;}
	.approve-st4{display:inline;}
	.approve-st5{clip-path:url(#SVGID_2_APPROVE);}
	.approve-st6{fill:#44D2DA;}
	.approve-st7{fill:#613104;}
	.approve-st8{fill:#CF874E;}
	.approve-st9{fill:#FDDB8F;}
	.approve-st10{fill:#643002;}
	.approve-st11{fill:#633001;}
</style>
<path class="approve-st0" d="M829.8,363.2H170.2C107.7,363.2,57,312.5,57,250v0c0-62.5,50.7-113.2,113.2-113.2h659.5
	c62.5,0,113.2,50.7,113.2,113.2v0C943,312.5,892.3,363.2,829.8,363.2z"/>
<g class="approve-st1">
	<path class="approve-st2" d="M340.8,247.2h-29.3l-5.2,13.4h-26.4l33.7-77h25.5l33.7,77h-26.8L340.8,247.2z M333.6,228.5l-7.5-19.4
		l-7.5,19.4H333.6z"/>
	<path class="approve-st2" d="M449.1,212.7c0,17.8-13.6,29-35.1,29h-11.1v18.9h-26v-77H414C435.5,183.6,449.1,194.9,449.1,212.7z
		 M422.9,212.7c0-5.6-3.4-9-10.6-9h-9.5v18h9.5C419.5,221.7,422.9,218.3,422.9,212.7z"/>
	<path class="approve-st2" d="M529.7,212.7c0,17.8-13.6,29-35.1,29h-11.1v18.9h-26v-77h37.1C516.1,183.6,529.7,194.9,529.7,212.7z
		 M503.6,212.7c0-5.6-3.4-9-10.6-9h-9.5v18h9.5C500.2,221.7,503.6,218.3,503.6,212.7z"/>
	<path class="approve-st2" d="M571.2,241.3h-7v19.4h-26v-77h37.1c21.5,0,35.1,11.2,35.1,29c0,11.1-5.3,19.5-14.5,24.2l16.2,23.8h-27.7
		L571.2,241.3z M573.6,203.7h-9.5v18h9.5c7.1,0,10.6-3.4,10.6-9C584.2,207.1,580.8,203.7,573.6,203.7z"/>
	<path class="approve-st2" d="M617.1,222.1c0-23.3,18.4-40.3,43.5-40.3s43.5,16.9,43.5,40.3s-18.4,40.3-43.5,40.3S617.1,245.5,617.1,222.1z
		 M677.8,222.1c0-12-7.7-19.2-17.3-19.2c-9.6,0-17.3,7.3-17.3,19.2s7.7,19.2,17.3,19.2C670.1,241.4,677.8,234.1,677.8,222.1z"/>
	<path class="approve-st2" d="M793,183.6l-32.6,77h-25.5l-32.6-77h27.9l18.4,45l18.8-45H793z"/>
	<path class="approve-st2" d="M859.5,241.1v19.6h-64v-77h62.6v19.6H821v9h32.6v18.7H821v10.1H859.5z"/>
</g>
<g class="approve-st1">
	<path class="approve-st2" d="M282.8,313.3l4.6-10.3c4,2.3,9.2,3.8,13.9,3.8c4,0,5.5-0.8,5.5-2.3c0-5.3-23.2-1-23.2-16.7
		c0-7.8,6.5-14.2,19.6-14.2c5.6,0,11.5,1.2,15.8,3.7l-4.3,10.3c-4.1-2.1-8-3.1-11.7-3.1c-4.1,0-5.5,1.2-5.5,2.6
		c0,5,23.2,0.8,23.2,16.3c0,7.7-6.5,14.2-19.6,14.2C294.1,317.6,287,315.9,282.8,313.3z"/>
	<path class="approve-st2" d="M362.4,316.6l-0.1-19.1l-9.1,15.4h-6.2l-9.1-14.7v18.5h-12.9v-42h11.6l13.7,22.4l13.3-22.4h11.6l0.1,42H362.4z
		"/>
	<path class="approve-st2" d="M410.7,309.3h-16l-2.8,7.3h-14.4l18.4-42h13.9l18.4,42h-14.6L410.7,309.3z M406.8,299.1l-4.1-10.6l-4.1,10.6
		H406.8z"/>
	<path class="approve-st2" d="M448.5,306.1h-3.8v10.6h-14.2v-42h20.2c11.7,0,19.1,6.1,19.1,15.8c0,6.1-2.9,10.6-7.9,13.2l8.8,13h-15.1
		L448.5,306.1z M449.8,285.6h-5.2v9.8h5.2c3.9,0,5.8-1.9,5.8-4.9C455.5,287.4,453.7,285.6,449.8,285.6z"/>
	<path class="approve-st2" d="M483.7,285.6h-12.3v-11h38.8v11h-12.3v31h-14.2V285.6z"/>
	<path class="approve-st2" d="M511.5,295.7c0-12.9,9.9-22,23.4-22c8.2,0,14.7,3,18.8,8.4l-8.9,8c-2.5-3.1-5.4-4.9-9.2-4.9
		c-5.9,0-9.8,4.1-9.8,10.5s4,10.5,9.8,10.5c3.8,0,6.7-1.8,9.2-4.9l8.9,8c-4.1,5.4-10.6,8.4-18.8,8.4
		C521.4,317.6,511.5,308.5,511.5,295.7z"/>
	<path class="approve-st2" d="M555.3,295.7c0-12.7,10-22,23.7-22s23.7,9.2,23.7,22s-10,22-23.7,22S555.3,308.4,555.3,295.7z M588.4,295.7
		c0-6.5-4.2-10.5-9.4-10.5s-9.4,4-9.4,10.5s4.2,10.5,9.4,10.5S588.4,302.2,588.4,295.7z"/>
	<path class="approve-st2" d="M649.2,274.7v42h-11.6l-16-19.1v19.1h-13.8v-42h11.6l16,19.1v-19.1H649.2z"/>
	<path class="approve-st2" d="M665.2,285.6h-12.3v-11h38.8v11h-12.3v31h-14.2V285.6z"/>
	<path class="approve-st2" d="M713.3,306.1h-3.8v10.6h-14.2v-42h20.2c11.7,0,19.1,6.1,19.1,15.8c0,6.1-2.9,10.6-7.9,13.2l8.8,13h-15.1
		L713.3,306.1z M714.6,285.6h-5.2v9.8h5.2c3.9,0,5.8-1.9,5.8-4.9C720.4,287.4,718.5,285.6,714.6,285.6z"/>
	<path class="approve-st2" d="M768.6,309.3h-16l-2.8,7.3h-14.4l18.4-42h13.9l18.4,42h-14.6L768.6,309.3z M764.7,299.1l-4.1-10.6l-4.1,10.6
		H764.7z"/>
	<path class="approve-st2" d="M786.1,295.7c0-12.9,9.9-22,23.4-22c8.2,0,14.7,3,18.8,8.4l-8.9,8c-2.5-3.1-5.4-4.9-9.2-4.9
		c-5.9,0-9.8,4.1-9.8,10.5s4,10.5,9.8,10.5c3.8,0,6.7-1.8,9.2-4.9l8.9,8c-4.1,5.4-10.6,8.4-18.8,8.4
		C796,317.6,786.1,308.5,786.1,295.7z"/>
	<path class="approve-st2" d="M841.2,285.6h-12.3v-11h38.8v11h-12.3v31h-14.2V285.6z"/>
</g>
<g>
	<g>
		<path class="approve-st2" d="M232.1,245c-1.3,0-2.2,1-2.2,2.2v64.4c0,3.3-2.7,6-6,6h-59.6c-1.3,0-2.2,1-2.2,2.2c0,1.3,1,2.2,2.2,2.2h59.6
			c5.8,0,10.5-4.7,10.5-10.5v-64.4C234.2,246.1,233.3,245,232.1,245L232.1,245z"/>
		<path class="approve-st2" d="M187.4,249.9c1.3,0,2.2-1,2.2-2.2s-1-2.2-2.2-2.2H176c-1.3,0-2.2,1-2.2,2.2s1,2.2,2.2,2.2H187.4z"/>
		<path class="approve-st2" d="M210.8,293.3h-11.4c-1.3,0-2.2,1-2.2,2.2s1,2.2,2.2,2.2h11.4c1.3,0,2.2-1,2.2-2.2S212,293.3,210.8,293.3z"/>
		<path class="approve-st2" d="M151.6,259.7c0,1.3,1,2.2,2.2,2.2h57c1.3,0,2.2-1,2.2-2.2c0-1.3-1-2.2-2.2-2.2h-57
			C152.5,257.5,151.6,258.4,151.6,259.7z"/>
		<path class="approve-st2" d="M153.8,273.8h57c1.3,0,2.2-1,2.2-2.2s-1-2.2-2.2-2.2h-57c-1.3,0-2.2,1-2.2,2.2S152.5,273.8,153.8,273.8
			L153.8,273.8z"/>
		<path class="approve-st2" d="M153.8,285.8h57c1.3,0,2.2-1,2.2-2.2s-1-2.2-2.2-2.2h-57c-1.3,0-2.2,1-2.2,2.2S152.5,285.8,153.8,285.8
			L153.8,285.8z"/>
		<path class="approve-st2" d="M256.7,181.8c-2.2-2.1-4.7-4-7.4-5.5c-1-0.6-2.4-0.2-3,0.8c-0.6,1-0.2,2.4,0.8,3c2.4,1.3,4.5,2.9,6.6,4.8
			c0.5,0.5,1,1,1.5,1.5l-11,5.6c-1.5,0.8-3.2,0.6-4.5-0.5l-4.6-3.8l-0.1-5.2c0-1.2-1-2.2-2.2-2.2l0,0c-1.3,0-2.2,1-2.2,2.2l0.1,4.5
			l-5.6,1.9c-1.2,0.4-1.8,1.7-1.4,2.8c0.4,0.8,1.3,1.9,2.8,1.4l6-2l4.4,3.7c1.5,1.3,3.5,2,5.4,2c1.3,0,2.6-0.3,3.9-0.9l2.1-1
			l0.6,3.7c0.5,2.6,4.7,2.2,4.4-0.8l-0.9-5l5.6-2.9c3.8,5.5,6,12.1,6,18.9v6.8l-4.6-4.6l1.1-5c0.3-1.2-0.5-2.4-1.7-2.6
			c-1.2-0.3-2.4,0.5-2.6,1.7l-1,4.5H251c-1.3,0-2.2,1-2.2,2.2c0,1.3,1,2.2,2.2,2.2l0,0h4.9l6.9,6.9c-1.9,4.4-6.3,7.5-11.4,7.5h-36
			c-3.9,0-7.3-2.6-8.3-6.3c-0.5-1.7-1.7-3.1-3.3-3.8l-12.2-4.9c-4.9-2-8-6.6-8-11.9c0-4,2-7.9,5.2-10.3l12.1-8.9
			c3.4-2.5,7.2-4.3,11.3-5.3c0,0,0,0,0,0.1l-2.6,10l-3.5,1.4c-1.1,0.4-1.7,1.7-1.3,2.9c0.6,0.8,1.1,1.7,2.9,1.3l3.1-1.2l3,3.4
			c0.8,0.6,1.5,1.3,3.1,0.2c0.9-0.8,1-2.2,0.2-3.1l-3.3-3.7l2.5-10c0.1-0.6,0.2-1.3,0.1-2c1.3-0.1,2.5-0.2,3.8-0.2h10.5
			c2.1,0,4.3,0.2,6.3,0.6c1.2,0.2,2.4-0.6,2.6-1.7c0.2-1.2-0.6-2.4-1.7-2.6c-2.4-0.5-4.8-0.7-7.2-0.7h-10.2c-8,0-15.6,2.5-22.1,7.2
			l-12.1,8.9c-1.3,0.9-2.3,2-3.2,3.1h-10.5c-0.5,0.1-1,0.1-1.5,0.6l-32.9,32.9c-0.3,0.3-0.6,0.8-0.6,1.5v86.1
			c0,5.8,4.7,10.5,10.5,10.5h5.2c1.3,0,2.2-1,2.2-2.2s-1-2.2-2.2-2.2h-5.2c-3.3,0-6-2.7-6-6v-84.1h23.5c5.2,0,9.4-4.3,9.4-9.4v-23.5
			h5.7c-0.8,2-1.3,4.2-1.3,6.4c0,7,4.3,13.3,10.7,16l12.2,4.9c0.3,0.1,0.6,0.5,0.7,0.8c1.5,5.7,6.7,9.7,12.6,9.7h14.4l3.5,5.2
			c0.1,0.2,0.3,0.3,0.5,0.5l6,4.7c1,0.7,2.6,1.2,4.3,0.1c1.3-0.9,1.9-2.5,1.5-4l-1.9-6.4h7.7c9.3,0,16.8-7.5,16.8-16.8v-7.1
			C268.3,198.7,264.1,188.8,256.7,181.8L256.7,181.8z M170.5,218.4c0,2.7-2.2,4.9-4.9,4.9h-20.4l25.3-25.3V218.4z M239.5,233.5
			l1.4,4.7l-3.8-3l-1.6-2.4h3.6L239.5,233.5z"/>
		<path class="approve-st2" d="M200.6,196.9c0-1.3-1-2.2-2.2-2.2s-2.2,1-2.2,2.2v2.1c0,1.3-0.5,2.5-1.4,3.4l-2.7,2.7c-0.8,0.8-0.8,2.3,0,3.1
			c0.7,0.6,2,1,3.1,0l2.7-2.7c0.3-0.3,0.5-0.6,0.7-0.8l4.5,2.9c0.7,0.5,2.1,0.6,3.1-0.7c0.7-1,0.3-2.4-0.7-3.1l-5.1-3.3
			c0.1-0.6,0.1-1,0.1-1.6L200.6,196.9L200.6,196.9z"/>
		<path class="approve-st2" d="M231.5,199.5c-1.3,0-2.2,1-2.2,2.2v2.9l-5.1-0.2c-0.7,0-1.4,0-2.1,0.1l-6.1-3.6c-1-0.6-2.4-0.3-3.1,0.8
			c-0.6,1-0.3,2.4,0.8,3.1l3.5,2.1l-5.4,4.6c-0.9,0.8-1,2.2-0.3,3.1c0.8,0.9,2.2,1,3.1,0.3l5.4-4.6c1.1-0.9,2.4-1.4,3.9-1.3l5.4,0.2
			c0.3,0,0.7,0.1,0.9,0.4l4.6,5.2l-2,4.8c-0.5,1.1,0.1,2.4,1.2,2.9c0.8,0.3,2.2,0.2,2.9-1.2l1.9-4.4l4.7,1c0.9,0.2,2.2-0.3,2.6-1.7
			c0.3-1.2-0.5-2.4-1.7-2.6l-5.8-1.3l-5-5.7l0,0v-4.9C233.8,200.5,232.8,199.5,231.5,199.5L231.5,199.5z"/>
	</g>
</g>
<g id="Logo_PancakeSwap" class="approve-st3">
	<g class="approve-st4">
		<g>
			<defs>
				<circle id="SVGID_1_APPROVE" cx="183.4" cy="250" r="164.5"/>
			</defs>
			<clipPath id="SVGID_2_APPROVE">
				<use xlink:href="#SVGID_1_APPROVE"  approve-style="overflow:visible;"/>
			</clipPath>
			<g class="approve-st5">
				<path class="approve-st6" d="M343.8,80.6c-108.3,0.2-216.7,0.2-325,0.2c-1.1,0-2.3,0.2-3.4,0c-3-0.6-3.6,0.5-3.5,3.4
					c0.3,8.5,0.1,16.9,0.1,25.4c0,22.6,0,45.2,0,67.7c0,26.5,0,53.1,0,79.6c0,19.8,0,39.5,0,59.3c0,32.7,0.1,65.5-0.1,98.2
					c0,4.2,1,5.2,5.2,5.2c109.5-0.1,218.9-0.1,328.4,0c4.2,0,5.2-1,5.2-5.2c-0.2-42.9-0.1-85.8-0.1-128.7c0-27.1,0-54.2,0-81.3
					c0-18.6,0-37.3,0-55.9c0-13,0-26,0-38.9c0-7.3-0.5-14.7,0.2-22C351.2,81.6,349.6,80.5,343.8,80.6z M236,348.5
					c-23.4,8.2-47.4,11.4-72.2,8.4c-22.7-2.7-44.1-8.5-63-22c-7.1-5-12.1-12.3-19.2-17.3c0-0.8-0.1-1.5-0.5-2.2
					c-6.2-12.5-6.4-25.8-6.3-39.3c0-2.5,1-5-1-6.5c1.9-1.7,1.6-3.9,2.3-6.3c3.9-13.2,11.6-23.5,22.8-31.4c4.4-3.1,8.9-5.9,13.6-8.5
					c10.8-6,13.2-30.8,2.3-37.7c2.6-1.6-0.3-4.4-0.6-7.2c-0.3-3.4-0.4-6.7-0.4-10.1c0.2-13.8,5.7-21.4,17.9-25
					c10.9-3.3,22.6,1.1,29.3,11c1.4,2.1,2.5,4.4,4.7,5.8c0.8,0.4,1.6,0.7,2.3,0.9c1.1,9.2,0.7,18.4,0.7,27.6c0,14.8,0,14.4,15,15.2
					c7.5,0.4,11.4-1.6,11.4-9.1c0-14.1-1.9-28.6,4.1-42.3c3.6,0.5,3.3-1.8,5.8-3.8c12.7-10,26.1-9,37.3,2.8c1.8,1.9,3.4,3.9,5.8,4.7
					c-1.1,1.3-1,3-0.6,4.6c1.7,7.4-0.3,14.4-1.6,21.5c-1.8,9.3-4.2,18.5-4.9,28c-0.5,6.7,2.6,10,8.4,9.6c0,0.1,0.1,0.2,0.1,0.3
					c1.6,4.1,5.4,5.4,8.7,7.5c18.4,12.1,30.3,28,29.2,51.3c-0.2,5-0.1,10.1,0.1,15.1c0.1,1.7,0.1,3.4,0.7,4.9l0,0
					C278.9,324.2,260.6,339.9,236,348.5z"/>
				<path class="approve-st7" d="M82.3,321c-11.3-15.9-9.4-34.3-9.6-52.3c4.7-23.9,20.4-38.7,41.1-49.1c5.3-2.7,6.8-5.3,5.2-11
					c-2.1-7.5-3.3-15.3-4.9-23c-1.4-9.3-3.5-18.5-0.5-28c3.9-12.2,12.6-17.8,24.5-19c12-1.3,21.4,3.5,28,13.6
					c1.4,2.1,2.5,4.3,3.8,6.5c2.7,8.3,2.7,12.5,2.7,19.4c0,4.8,0.6,12.8,0.8,17.6c0.1,5,4.2,6.5,9.6,6.6c5.7,0.1,10.1-2.1,10.2-7.6
					c0.2-9.2,0.4-21.1,1-30.4c0.3-5.1,0.6-5.3,4-11.8c11.9-15.7,28.6-18.5,44.8-8.1c4.3,2.8,5.8,6.5,8.8,10.8
					c5.3,12.3,0.2,24.2-1.4,36.3c-0.7,5.3-2,10.5-3,15.6c-1.6,8.1,0.8,9.8,7,12.5c9.2,5.6,17.9,11.8,25.3,19.8
					c13.7,14.7,15.2,32.5,14,51.2c-0.2,3.9,0.3,8-0.7,11.8c-9.3,26.8-30,41.5-55.4,50.3c-36.6,12.7-73.5,12.3-110.1-0.4
					C109.6,346,94.6,335.4,82.3,321z"/>
				<path class="approve-st8" d="M82,284.2c-3.1-27.1,12-43.2,33.4-55.5c2.7-1.5,5.4-3.2,8.4-4c6.1-1.7,6.6-5.3,5.4-10.9
					c-2.9-13.2-5.1-26.5-7.6-39.8c-2.6-13.9,5-25.2,17.7-26.6c12.5-1.4,22.1,8.4,22.2,22.8c0.1,11.8,0.3,23.7-0.1,35.5
					c-0.2,5.9,0.7,8.5,7.8,7.7c9.2-1,18.6-0.7,27.9-0.1c5.3,0.4,7-1,6.9-6.2c-0.2-12.7-0.4-25.4,0.1-38.1
					c0.5-15.3,12.4-24.5,26-20.8c10.3,2.9,16.3,12.2,14.5,23.5c-2.3,14.2-4.8,28.3-7.9,42.4c-1.2,5.5-0.2,8.3,5.1,10.3
					c8.2,3.1,15.7,7.6,22.5,13.2c14.8,12,22.5,27.1,20.1,46.6c-1.8,18.4-13.9,29.7-28.4,38.5c-19.4,11.8-40.9,16.9-63.6,17.5
					c-18.1,0.5-36-0.3-53.6-5.3c-19.1-5.4-35.9-14.6-49.1-29.7C84.5,299,83.7,291.5,82,284.2z"/>
				<path class="approve-st9" d="M82,284.2c9.4,24.5,29,37.6,52.6,45.2c33.5,10.7,67.2,10.6,100.5-1.1c22.4-7.9,40.6-20.8,49.5-44
					c1.7,20.2-7.6,35.1-23.5,46.3c-25.5,18-54.5,23-84.9,22c-20.7-0.7-40.7-5.1-59.2-14.8c-7-3.7-13.5-8.1-19.2-13.6
					C86.4,313.2,80.2,300.3,82,284.2z"/>
				<path class="approve-st10" d="M154.8,271.3c0,0.6,0.1,2-0.2,3.4c-1.2,6.1-3.6,11.9-10.6,12.2c-6.7,0.3-9.1-5.4-10.8-11
					c-0.5-1.6-0.5-3.3-0.6-5c-0.3-9.3,4.7-17.2,11-17.5C150,253.3,154.8,260.7,154.8,271.3z"/>
				<path class="approve-st11" d="M232.7,270.5c0,9.2-4.7,16.5-10.7,16.7c-6.3,0.2-11.6-7.6-11.5-17c0-8.9,5-16.4,11-16.7
					C227.8,253.3,232.7,260.7,232.7,270.5z"/>
			</g>
		</g>
	</g>
</g>
</svg>
