<?xml version="1.0" encoding="utf-8"?>
<!-- Generator: Adobe Illustrator 25.2.1, SVG Export Plug-In . SVG Version: 6.00 Build 0)  -->
<svg version="1.1" id="Capa_1" xmlns="http://www.w3.org/2000/svg" xmlns:xlink="http://www.w3.org/1999/xlink" x="0px" y="0px"
	 viewBox="0 0 512 512" style="enable-background:new 0 0 512 512;" xml:space="preserve">
<style type="text/css">
	.st0{fill:#005A5C;}
	.st1{fill:#013A3A;}
	.st2{fill:#FAFAFA;}
</style>
<g>
	<path class="st0" d="M306.3,131.3c-2-2.1-4.8-3.3-7.7-3.3h-85.3c-2.9,0-5.7,1.2-7.7,3.3C190.1,147.4,53.3,290.9,53.3,352
		c0,88.2,90.9,160,202.7,160s202.7-71.8,202.7-160C458.7,290.9,321.9,147.4,306.3,131.3z"/>
	<path class="st0" d="M392,14.3c-17.8-20.1-64,6.3-90.5,24.1C289.3,21.1,271.3,0,256,0s-33.3,21.1-45.5,38.4
		C184.1,20.5,137.7-5.8,120,14.3c-4.9,5.7-7.2,13.1-6.4,20.6c3.4,39.5,83.9,104.8,93,112.1c1.9,1.5,4.3,2.4,6.7,2.3h85.3
		c2.4,0,4.8-0.8,6.7-2.3c9.2-7.3,89.6-72.5,93-112.1C399.2,27.4,396.9,20,392,14.3z"/>
</g>
<path class="st1" d="M341.3,149.3H170.7c-5.9,0-10.7-4.8-10.7-10.7s4.8-10.7,10.7-10.7h170.7c5.9,0,10.7,4.8,10.7,10.7
	S347.2,149.3,341.3,149.3z"/>
<g>
	<path class="st2" d="M256,426.7c-25.4,2.5-48.5-14.7-53.3-39.7c-0.5-5.9,3.9-11.1,9.8-11.6c5.9-0.5,11.1,3.9,11.6,9.8
		c0.9,11.1,15.3,20.2,32,20.2c17.4,0,32-9.8,32-21.3c0-10.4-10.1-17.1-31.8-21.1l-2.3-0.4c-34.6-6.4-51.2-20.5-51.2-42.5
		c3.3-26.3,26.9-45.2,53.3-42.7c25.4-2.5,48.5,14.7,53.3,39.7c0.5,5.9-3.9,11.1-9.8,11.6s-11.1-3.9-11.6-9.8l0,0
		c-0.9-11.1-15.3-20.2-32-20.2c-17.4,0-32,9.8-32,21.3c0,10.4,10.1,17.1,31.9,21.1l2.3,0.4c34.6,6.4,51.2,20.5,51.2,42.5
		C306,410.3,282.4,429.2,256,426.7z"/>
	<path class="st2" d="M256,448c-5.9,0-10.7-4.8-10.7-10.7V266.7c0-5.9,4.8-10.7,10.7-10.7s10.7,4.8,10.7,10.7v170.7
		C266.7,443.2,261.9,448,256,448z"/>
</g>
</svg>
