<?xml version="1.0" encoding="utf-8"?>
<!-- Generator: Adobe Illustrator 25.2.1, SVG Export Plug-In . SVG Version: 6.00 Build 0)  -->
<svg version="1.1" id="Calque_1" xmlns="http://www.w3.org/2000/svg" xmlns:xlink="http://www.w3.org/1999/xlink" x="0px" y="0px"
	 viewBox="0 0 1000 500" style="enable-background:new 0 0 1000 500;" xml:space="preserve">
<style type="text/css">
	.Out-st0{fill:#FFFFFF;}
	.Out-st1{fill:#E03268;}
	.Out-st2{enable-background:new    ;}
	.Out-st3{display:none;}
	.Out-st4{display:inline;}
</style>
<g id="Fond">
	<g>
		<g>
			<path class="Out-st0" d="M829.8,363.2H170.2C107.7,363.2,57,312.5,57,250l0,0c0-62.5,50.7-113.2,113.2-113.2h659.5
				c62.5,0,113.2,50.7,113.2,113.2l0,0C943,312.5,892.3,363.2,829.8,363.2z"/>
		</g>
	</g>
</g>
<g id="Logo_-_UnOut-stake">
	<g>
		<g>
			<g>
				<g>
					<path class="Out-st1" d="M262.1,184.1H161.3c-8.5,0-15.4,6.9-15.4,15.4v20.6h10.3v-20.6c0-2.8,2.3-5.1,5.1-5.1h100.8
						c2.8,0,5.1,2.3,5.1,5.1v100.8c0,2.8-2.3,5.1-5.1,5.1H161.3c-2.8,0-5.1-2.3-5.1-5.1v-20.6h-10.3v20.6c0,8.5,6.9,15.4,15.4,15.4
						h100.8c8.5,0,15.4-6.9,15.4-15.4V199.6C277.6,191.1,270.7,184.1,262.1,184.1z"/>
				</g>
			</g>
			<g>
				<g>
					<polygon class="Out-st1" points="239.5,244.9 165.5,244.9 185,225.3 177.8,218 145.8,250 177.8,282 185,274.7 165.5,255.1 
						239.5,255.1 					"/>
				</g>
			</g>
		</g>
	</g>
</g>
<g id="Texte">
	<g>
		<g class="Out-st2">
			<path class="Out-st1" d="M322.8,256.2v-42.3h26v41.6c0,11.8,4.5,16.2,11.8,16.2c7.3,0,11.8-4.4,11.8-16.2v-41.6h25.5v42.3
				c0,23.1-13.9,36.4-37.5,36.4C336.7,292.6,322.8,279.3,322.8,256.2z"/>
			<path class="Out-st1" d="M485.6,213.8v77h-21.3l-29.3-35v35h-25.3v-77h21.3l29.3,35v-35H485.6z"/>
			<path class="Out-st1" d="M493.3,284.6l8.4-18.9c7.3,4.3,16.9,7,25.4,7c7.4,0,10-1.5,10-4.2c0-9.7-42.6-1.9-42.6-30.6
				c0-14.3,12-26,35.9-26c10.3,0,21,2.2,29,6.7l-7.8,18.8c-7.6-3.8-14.7-5.7-21.5-5.7c-7.6,0-10,2.2-10,4.8
				c0,9.2,42.6,1.5,42.6,29.9c0,14.1-12,26-35.9,26C514,292.6,501,289.4,493.3,284.6z"/>
			<path class="Out-st1" d="M586.1,233.9h-22.6v-20.1h71.1v20.1H612v56.9h-26V233.9z"/>
			<path class="Out-st1" d="M689.9,277.4h-29.3l-5.2,13.4h-26.4l33.7-77h25.5l33.7,77h-26.8L689.9,277.4z M682.8,258.7l-7.5-19.4
				l-7.5,19.4H682.8z"/>
			<path class="Out-st1" d="M757.5,265.3l-5.8,6.5v19h-25.5v-77h25.5v27.9l25.3-27.9h28.3l-30.8,33.9l32.3,43.1h-30L757.5,265.3z"/>
			<path class="Out-st1" d="M874.3,271.2v19.6h-64v-77h62.6v19.6h-37.1v9h32.6v18.7h-32.6v10.1H874.3z"/>
		</g>
	</g>
</g>
<g id="Logo_-_Out-Stake_1_" class="Out-st3">
	<g class="Out-st4">
		<g>
			<g>
				<g>
					<path class="Out-st1" d="M262.1,184.1H161.3c-8.5,0-15.4,6.9-15.4,15.4v20.6h10.3v-20.6c0-2.8,2.3-5.1,5.1-5.1h100.8
						c2.8,0,5.1,2.3,5.1,5.1v100.8c0,2.8-2.3,5.1-5.1,5.1H161.3c-2.8,0-5.1-2.3-5.1-5.1v-20.6h-10.3v20.6c0,8.5,6.9,15.4,15.4,15.4
						h100.8c8.5,0,15.4-6.9,15.4-15.4V199.6C277.5,191.1,270.6,184.1,262.1,184.1z"/>
				</g>
			</g>
			<g>
				<g>
					<polygon class="Out-st1" points="207.6,218 200.3,225.3 219.8,244.9 145.8,244.9 145.8,255.1 219.8,255.1 200.3,274.7 207.6,282 
						239.5,250 					"/>
				</g>
			</g>
		</g>
	</g>
</g>
</svg>
