<?xml version="1.0" encoding="utf-8"?>
<!-- Generator: Adobe Illustrator 25.2.1, SVG Export Plug-In . SVG Version: 6.00 Build 0)  -->
<svg version="1.1" xmlns="http://www.w3.org/2000/svg" xmlns:xlink="http://www.w3.org/1999/xlink" x="0px" y="0px"
	 viewBox="0 0 1000 500" style="enable-background:new 0 0 1000 500;" xml:space="preserve">
<style type="text/css">
	.In-st0{fill:#FFFFFF;}
	.In-st1{display:none;}
	.In-st2{display:inline;}
	.In-st3{fill:#E03268;}
	.In-st4{fill:#005A5C;}
</style>
<g id="Fond">
	<g>
		<g>
			<path class="In-st0" d="M677.5,363.2H170.2C107.7,363.2,57,312.5,57,250v0c0-62.5,50.7-113.2,113.2-113.2h507.2
				c62.5,0,113.2,50.7,113.2,113.2v0C790.7,312.5,740,363.2,677.5,363.2z"/>
		</g>
	</g>
</g>
<g id="Logo_-_UnIn-stake" class="In-st1">
	<g class="In-st2">
		<g>
			<g>
				<g>
					<path class="In-st3" d="M262.1,184.1H161.3c-8.5,0-15.4,6.9-15.4,15.4v20.6h10.3v-20.6c0-2.8,2.3-5.1,5.1-5.1h100.8
						c2.8,0,5.1,2.3,5.1,5.1v100.8c0,2.8-2.3,5.1-5.1,5.1H161.3c-2.8,0-5.1-2.3-5.1-5.1v-20.6h-10.3v20.6c0,8.5,6.9,15.4,15.4,15.4
						h100.8c8.5,0,15.4-6.9,15.4-15.4V199.6C277.6,191.1,270.7,184.1,262.1,184.1z"/>
				</g>
			</g>
			<g>
				<g>
					<polygon class="In-st3" points="239.5,244.9 165.5,244.9 185,225.3 177.8,218 145.8,250 177.8,282 185,274.7 165.5,255.1 
						239.5,255.1 					"/>
				</g>
			</g>
		</g>
	</g>
</g>
<g id="Texte">
	<g>
		<g>
			<path class="In-st4" d="M322.5,284.6l8.4-18.9c7.3,4.3,16.9,7,25.4,7c7.4,0,10-1.5,10-4.2c0-9.7-42.6-1.9-42.6-30.6
				c0-14.3,12-26,35.9-26c10.3,0,21,2.2,29,6.7l-7.8,18.8c-7.6-3.9-14.7-5.7-21.5-5.7c-7.6,0-10,2.2-10,4.8
				c0,9.2,42.6,1.5,42.6,29.9c0,14.1-12,26-35.9,26C343.2,292.6,330.2,289.4,322.5,284.6z"/>
			<path class="In-st4" d="M415.2,233.9h-22.5v-20.1h71.1v20.1h-22.5v56.9h-26V233.9z"/>
			<path class="In-st4" d="M519,277.4h-29.3l-5.2,13.4h-26.4l33.7-77h25.5l33.7,77h-26.8L519,277.4z M511.9,258.7l-7.5-19.4l-7.5,19.4
				H511.9z"/>
			<path class="In-st4" d="M586.6,265.3l-5.8,6.5v19h-25.5v-77h25.5v27.9l25.3-27.9h28.3l-30.8,33.9l32.3,43.1h-30L586.6,265.3z"/>
			<path class="In-st4" d="M703.4,271.2v19.6h-64v-77H702v19.6h-37.1v9h32.6v18.7h-32.6v10.1H703.4z"/>
		</g>
	</g>
</g>
<g id="Logo_-_In-Stake_1_">
	<g>
		<g>
			<g>
				<g>
					<path class="In-st4" d="M262.1,184.1H161.3c-8.5,0-15.4,6.9-15.4,15.4v20.6h10.3v-20.6c0-2.8,2.3-5.1,5.1-5.1h100.8
						c2.8,0,5.1,2.3,5.1,5.1v100.8c0,2.8-2.3,5.1-5.1,5.1H161.3c-2.8,0-5.1-2.3-5.1-5.1v-20.6h-10.3v20.6c0,8.5,6.9,15.4,15.4,15.4
						h100.8c8.5,0,15.4-6.9,15.4-15.4V199.6C277.5,191.1,270.6,184.1,262.1,184.1z"/>
				</g>
			</g>
			<g>
				<g>
					<polygon class="In-st4" points="207.6,218 200.3,225.3 219.8,244.9 145.8,244.9 145.8,255.1 219.8,255.1 200.3,274.7 207.6,282 
						239.5,250 					"/>
				</g>
			</g>
		</g>
	</g>
</g>
</svg>
