<?xml version="1.0" encoding="utf-8"?>
<!-- Generator: Adobe Illustrator 25.2.1, SVG Export Plug-In . SVG Version: 6.00 Build 0)  -->
<svg version="1.1" id="Calque_1" xmlns="http://www.w3.org/2000/svg" xmlns:xlink="http://www.w3.org/1999/xlink" x="0px" y="0px"
	 viewBox="0 0 500 500" style="enable-background:new 0 0 500 500;" xml:space="preserve">
<style type="text/css">
	.st0{fill:url(#SVGID_1_);}
	.st1{fill:#F7F9FA;}
	.st2{fill:#DCE6EB;}
	.st3{fill:#B9C3CD;}
</style>
<g>
	
		<linearGradient id="SVGID_1_" gradientUnits="userSpaceOnUse" x1="0" y1="252" x2="500" y2="252" gradientTransform="matrix(1 0 0 -1 0 502)">
		<stop  offset="0" style="stop-color:#662483"/>
		<stop  offset="5.972981e-03" style="stop-color:#672482"/>
		<stop  offset="0.2186" style="stop-color:#8F1B71"/>
		<stop  offset="0.4282" style="stop-color:#AE1464"/>
		<stop  offset="0.6314" style="stop-color:#C40F5A"/>
		<stop  offset="0.8254" style="stop-color:#D10C54"/>
		<stop  offset="1" style="stop-color:#D60B52"/>
	</linearGradient>
	<circle class="st0" cx="250" cy="250" r="250"/>
	<g>
		<path class="st1" d="M287.7,199.6l-86.3-49.9c-4.1-2.4-9.2-2.4-13.4,0l-75.3,43.5l-8.9,38.5l82,126.5c4.1,2.4,9.2,2.4,13.4,0
			l95.3-58.8v-88.2C294.3,208.8,289.8,200.8,287.7,199.6L287.7,199.6z"/>
		<path class="st2" d="M112.6,193.2l-11.2,6.4c-2.1,1.2-3.7,2.9-4.9,4.9l16.1,18.2L112.6,193.2L112.6,193.2z"/>
		<path class="st2" d="M194.5,349.3l-8.9,14.1l8.9,10.8c2.3,0,4.7-0.5,6.7-1.7l86.3-49.9c4.1-2.4,6.7-6.8,6.7-11.6v-11.6l-86.3,49.9
			C203.8,351.6,198.6,351.6,194.5,349.3L194.5,349.3z"/>
		<path class="st2" d="M294.3,211.1c0-2.4-0.7-4.7-1.7-6.7c-1.2-2-2.8-3.7-4.9-4.9l-99.8,57.6l-75.3-43.5l-8.9,89.4
			c0,4.8,2.5,9.2,6.7,11.6l84.2,34.5v-80.5L294.3,211.1z"/>
		<path class="st3" d="M119.3,305.7c-4.1-2.4-6.7-6.8-6.7-11.6v-80.5l-16.1-9.3c-1.2,2-1.7,4.3-1.7,6.7v99.8c0,4.8,2.5,9.2,6.7,11.6
			l86.3,49.9c2.1,1.2,4.4,1.7,6.7,1.7v-25L119.3,305.7z"/>
	</g>
	<g>
		<path class="st1" d="M398.5,262.8l-86.3-49.9c-4.1-2.4-9.2-2.4-13.4,0l-75.3,43.5l-8.9,38.5l82,126.5c4.1,2.4,9.2,2.4,13.4,0
			l95.3-58.8v-88.2C405.3,272,400.6,264,398.5,262.8L398.5,262.8z"/>
		<path class="st2" d="M223.5,256.3l-11.2,6.4c-2.1,1.2-3.7,2.9-4.9,4.9l16.1,18.2L223.5,256.3L223.5,256.3z"/>
		<path class="st2" d="M305.5,412.3l-8.9,14.1l8.9,10.8c2.3,0,4.7-0.5,6.7-1.7l86.3-49.9c4.1-2.4,6.7-6.8,6.7-11.6v-11.6l-86.3,49.9
			C314.7,414.7,309.6,414.7,305.5,412.3L305.5,412.3z"/>
		<path class="st2" d="M405.3,274.3c0-2.4-0.7-4.7-1.7-6.7c-1.1-2-2.8-3.7-4.9-4.9l-99.8,57.6l-75.3-43.5l-8.9,89.4
			c0,4.8,2.5,9.2,6.7,11.6l84.2,34.5v-80.5L405.3,274.3z"/>
		<path class="st3" d="M230.2,368.9c-4.1-2.4-6.7-6.8-6.7-11.6v-80.5l-16.1-9.3c-1.2,2-1.7,4.3-1.7,6.7V374c0,4.8,2.5,9.2,6.7,11.6
			l86.3,49.9c2.1,1.2,4.4,1.7,6.7,1.7v-24.9L230.2,368.9z"/>
	</g>
	<g>
		<path class="st1" d="M348.1,114.3l-86.3-49.9c-4.1-2.4-9.2-2.4-13.4,0L173,107.9l-8.9,38.5l82,126.5c4.1,2.4,9.2,2.4,13.4,0
			l95.3-58.8v-88.2C354.7,123.6,350.1,115.5,348.1,114.3L348.1,114.3z"/>
		<path class="st2" d="M173,107.9l-11.2,6.4c-2.1,1.2-3.7,2.9-4.9,4.9l16.1,18.2L173,107.9L173,107.9z"/>
		<path class="st2" d="M254.9,264l-8.9,14.1l8.9,10.8c2.3,0,4.7-0.5,6.7-1.7l86.3-49.9c4.1-2.4,6.7-6.8,6.7-11.6v-11.6L268.2,264
			C264.1,266.4,259,266.4,254.9,264L254.9,264z"/>
		<path class="st2" d="M354.7,125.9c0-2.4-0.7-4.7-1.7-6.7s-2.8-3.7-4.9-4.9l-99.8,57.6L173,128.4l-8.9,89.4c0,4.8,2.5,9.2,6.7,11.6
			l84.2,34.5v-80.4L354.7,125.9z"/>
		<path class="st3" d="M179.6,220.6c-4.1-2.4-6.7-6.8-6.7-11.6v-80.5l-16.1-9.3c-1.2,2-1.7,4.3-1.7,6.7v99.8c0,4.8,2.5,9.2,6.7,11.6
			l86.3,49.9c2.1,1.2,4.4,1.7,6.7,1.7v-25L179.6,220.6z"/>
	</g>
</g>
</svg>
