<?xml version="1.0" encoding="utf-8"?>
<!-- Generator: Adobe Illustrator 25.1.0, SVG Export Plug-In . SVG Version: 6.00 Build 0)  -->
<svg version="1.1" id="Calque_1" xmlns="http://www.w3.org/2000/svg" xmlns:xlink="http://www.w3.org/1999/xlink" x="0px" y="0px"
	 viewBox="0 0 500 500" style="enable-background:new 0 0 500 500;" xml:space="preserve">
<style type="text/css">
	.st0{fill:url(#SVGID_1_);}
	.st1{fill:#FFD064;}
	.st2{fill:#DADADA;}
	.st3{fill:#B2B2B2;}
	.st4{fill:#C6C6C6;}
	.st5{fill:#878787;}
	.st6{fill:#C17D4F;}
	.st7{fill:#F6F6F6;}
</style>
<linearGradient id="SVGID_1_" gradientUnits="userSpaceOnUse" x1="62.0449" y1="249.764" x2="437.8876" y2="249.764">
	<stop  offset="0" style="stop-color:#CA9E67"/>
	<stop  offset="0.1578" style="stop-color:#C59A64"/>
	<stop  offset="0.333" style="stop-color:#B88E5D"/>
	<stop  offset="0.5165" style="stop-color:#A27B50"/>
	<stop  offset="0.7059" style="stop-color:#83603D"/>
	<stop  offset="0.8979" style="stop-color:#5B3E26"/>
	<stop  offset="1" style="stop-color:#432918"/>
</linearGradient>
<circle class="st0" cx="250" cy="249.8" r="187.9"/>
<g>
	
		<ellipse transform="matrix(0.4159 -0.9094 0.9094 0.4159 -61.7078 464.2255)" class="st1" cx="330.5" cy="280.2" rx="31.7" ry="50.2"/>
	<path class="st2" d="M309.3,326.6c35,16,72.9,8.2,84.6-17.5c11.7-25.7-7.1-59.4-42.1-75.4c-18.9-8.7-38.7-10.3-54.7-6
		c-15.8,4.3-32.7,3.1-47.5-4L131.3,167c-10.1-4.8-22.2-0.5-26.9,9.7c-4.7,10.2-0.1,22.2,10.2,26.7l120.2,52.4
		c15.1,6.6,27,18.5,34.1,33.3C276.2,304.1,290.4,318,309.3,326.6L309.3,326.6z"/>
	<path class="st3" d="M393.9,309.1c3.3-7.3,4.2-15.2,2.9-23.1c-0.2,0.5-0.4,0.9-0.6,1.4c-11.7,25.7-49.6,33.5-84.6,17.5
		c-18.9-8.7-33.1-22.5-40.3-37.5c-7.1-14.8-19.1-26.7-34.1-33.3L117,181.7c-4.4-1.9-7.8-5.3-9.9-9.3c-1.1,1.3-2,2.7-2.7,4.3
		c-4.7,10.2-0.1,22.2,10.2,26.7l120.2,52.4c15.1,6.6,27,18.5,34.1,33.3c7.2,15,21.4,28.8,40.3,37.5
		C344.3,342.6,382.2,334.8,393.9,309.1L393.9,309.1z"/>
	<path class="st4" d="M376.7,250.4l-14.4,1.1c-6.8,0.5-13.8,1.3-20.6,2.3l-12.3-5.4c10.5-2,21.5-3.4,32.3-4.3l7-0.6
		C371.6,245.8,374.2,248,376.7,250.4L376.7,250.4z M284.5,268l7.6-10.2c-11.8,3.7-23.8,8.3-35.3,13.5c1.7,1.8,3.4,3.8,4.9,5.8
		C269.1,273.8,276.8,270.7,284.5,268L284.5,268z M303.9,298.9c-6.5,3.6-12.9,7.5-19,11.5c1.8,1.7,3.8,3.4,5.8,5
		c7.7-4.9,15.7-9.6,23.7-13.8L303.9,298.9z M393,273.2c-1-2.3-2.1-4.5-3.5-6.7c-8.8,1.9-17.7,4.3-26.1,6.9l9.3,4.8
		C379.4,276.3,386.2,274.6,393,273.2z M297.1,227.7c-7.9,2.1-16,2.9-24,2.3c-12.1,3.7-20.8,7.1-25.2,8.8c-1.1,0.4-2,0.8-2.4,0.9
		c0,0,0,0,0,0c-3.2,1.1-6.6,1.8-10.1,2.2c-12.2,1.4-26.1-1.1-39.1-7.1c-13-6-24-14.8-31-24.9c-6.8-9.9-9.3-20.5-7.1-30.1l-6.7-3.2
		c-2.2,8.2-1.7,16.9,1.5,25.5c1.5,4,3.6,8,6.2,11.9c3.6,5.3,8.2,10.2,13.5,14.6l46.8,20.4c5.7,0.7,11.3,0.8,16.7,0.2
		c4-0.5,7.9-1.3,11.5-2.5c0.1,0,0.2-0.1,0.3-0.1c0.6-0.2,1.4-0.5,2.7-1c9.1-3.6,36.9-14.6,75.6-19.5
		C315.9,224.8,305.9,225.3,297.1,227.7L297.1,227.7z M171,196.2c4.1,10.9,15.2,21.8,29.8,28.5c18.8,8.6,39,8.3,49.2-0.9
		c-0.1-0.1-0.2-0.1-0.4-0.2l-7.1-3.4c-8.8,5.2-24.2,4.4-38.7-2.2c-15.2-6.9-26.3-19-27.2-29.3l-7.3-3.5
		C169,188.8,169.6,192.5,171,196.2L171,196.2z M134.2,186.4l-10.1-4.6c-1.8-0.8-4,0-4.9,1.8c-0.4,0.9-0.4,1.9-0.1,2.8
		c0.3,0.9,1,1.6,1.9,2.1l10.1,4.6c1.8,0.8,4,0,4.9-1.8C136.9,189.4,136.1,187.2,134.2,186.4z"/>
	<g>
		<path class="st5" d="M270.3,265.5c-4.6,1.8-9.2,3.8-13.6,5.8c1.7,1.8,3.4,3.8,4.9,5.8c4-1.8,8-3.5,12.1-5.1
			c-0.9-1.5-1.7-3-2.4-4.6C271,266.8,270.7,266.1,270.3,265.5L270.3,265.5z"/>
		<path class="st5" d="M302.1,299.9c-5.8,3.3-11.6,6.8-17.2,10.5c1.8,1.7,3.8,3.4,5.8,5c6.2-4,12.6-7.8,19.1-11.3
			C307.1,302.8,304.5,301.4,302.1,299.9z"/>
		<path class="st5" d="M119.3,183.5c-0.4,0.9-0.4,1.9-0.1,2.8c0.3,0.9,1,1.6,1.9,2.1l10.1,4.6c1.8,0.8,4,0,4.9-1.8
			c0.2-0.3,0.3-0.7,0.3-1l-16.7-7.3C119.5,183.1,119.4,183.3,119.3,183.5z"/>
		<path class="st5" d="M152.9,202.2c1.5,4,3.6,8,6.2,11.9c3.6,5.3,8.2,10.2,13.5,14.6l46.8,20.4c5.7,0.7,11.3,0.8,16.7,0.2
			c4-0.5,7.9-1.3,11.5-2.5c0.1,0,0.2-0.1,0.3-0.1c0.6-0.2,1.4-0.5,2.7-1c0.9-0.3,1.9-0.7,3.1-1.2c-2.2-1.9-4.5-3.6-6.9-5.2
			c-0.6,0.2-1,0.4-1.3,0.5c0,0,0,0,0,0c-3.2,1.1-6.6,1.8-10.1,2.2c-12.2,1.4-26.1-1.1-39.1-7.1c-13-6-24-14.8-31-24.9
			c-2.1-3.1-3.8-6.2-5.1-9.4l-8.9-3.9C151.6,198.5,152.2,200.3,152.9,202.2L152.9,202.2z"/>
		<path class="st5" d="M178.6,208.6c5.5,6.3,13.2,12,22.2,16.1c9.9,4.5,20.1,6.6,29.1,6.2L178.6,208.6z"/>
	</g>
	<path class="st6" d="M367.4,310.6c-16.2,4.7-36.4,3.1-55.7-5.7c-2.3-1.1-4.6-2.2-6.8-3.4c4.1,3,8.4,5.6,12.5,7.5
		C332.5,315.9,354.3,318.2,367.4,310.6z"/>
	
		<ellipse transform="matrix(0.4159 -0.9094 0.9094 0.4159 -61.7078 464.2255)" class="st7" cx="330.5" cy="280.2" rx="31.7" ry="50.2"/>
	<path class="st4" d="M367.4,310.6c-16.2,4.7-36.4,3.1-55.7-5.7c-2.3-1.1-4.6-2.2-6.8-3.4c4.1,3,8.4,5.6,12.5,7.5
		C332.5,315.9,354.3,318.2,367.4,310.6z"/>
</g>
</svg>
