<?xml version="1.0" encoding="utf-8"?>
<!-- Generator: Adobe Illustrator 25.1.0, SVG Export Plug-In . SVG Version: 6.00 Build 0)  -->
<svg version="1.1" id="Calque_1" xmlns="http://www.w3.org/2000/svg" xmlns:xlink="http://www.w3.org/1999/xlink" x="0px" y="0px"
	 viewBox="0 0 500 500" style="enable-background:new 0 0 500 500;" xml:space="preserve">
<style type="text/css">
	.st0{fill:url(#SVGID_1_);}
	.st1{fill:#F7F9FA;}
	.st2{fill:#DCE6EB;}
	.st3{fill:#B9C3CD;}
</style>
<linearGradient id="SVGID_1_" gradientUnits="userSpaceOnUse" x1="62.0787" y1="250" x2="437.9214" y2="250">
	<stop  offset="0" style="stop-color:#662483"/>
	<stop  offset="5.972981e-03" style="stop-color:#672482"/>
	<stop  offset="0.2186" style="stop-color:#8F1B71"/>
	<stop  offset="0.4282" style="stop-color:#AE1464"/>
	<stop  offset="0.6314" style="stop-color:#C40F5A"/>
	<stop  offset="0.8254" style="stop-color:#D10C54"/>
	<stop  offset="1" style="stop-color:#D60B52"/>
</linearGradient>
<circle class="st0" cx="250" cy="250" r="187.9"/>
<g>
	<path class="st1" d="M278.3,212.1l-64.9-37.5c-3.1-1.8-6.9-1.8-10.1,0l-56.6,32.7l-6.7,28.9l61.6,95.1c3.1,1.8,6.9,1.8,10.1,0
		l71.6-44.2v-66.3C283.3,219,279.9,213,278.3,212.1L278.3,212.1z"/>
	<path class="st2" d="M146.7,207.3l-8.4,4.8c-1.6,0.9-2.8,2.2-3.7,3.7l12.1,13.7V207.3z"/>
	<path class="st2" d="M208.3,324.6l-6.7,10.6l6.7,8.1c1.7,0,3.5-0.4,5-1.3l64.9-37.5c3.1-1.8,5-5.1,5-8.7v-8.7l-64.9,37.5
		C215.3,326.4,211.4,326.4,208.3,324.6L208.3,324.6z"/>
	<path class="st2" d="M283.3,220.8c0-1.8-0.5-3.5-1.3-5c-0.9-1.5-2.1-2.8-3.7-3.7l-75,43.3l-56.6-32.7l-6.7,67.2
		c0,3.6,1.9,6.9,5,8.7l63.3,25.9v-60.5L283.3,220.8z"/>
	<path class="st3" d="M151.8,291.9c-3.1-1.8-5-5.1-5-8.7v-60.5l-12.1-7c-0.9,1.5-1.3,3.2-1.3,5v75c0,3.6,1.9,6.9,5,8.7l64.9,37.5
		c1.6,0.9,3.3,1.3,5,1.3v-18.8L151.8,291.9z"/>
</g>
<g>
	<path class="st1" d="M361.6,259.6l-64.9-37.5c-3.1-1.8-6.9-1.8-10.1,0l-56.6,32.7l-6.7,28.9l61.6,95.1c3.1,1.8,6.9,1.8,10.1,0
		l71.6-44.2v-66.3C366.7,266.5,363.2,260.5,361.6,259.6L361.6,259.6z"/>
	<path class="st2" d="M230.1,254.7l-8.4,4.8c-1.6,0.9-2.8,2.2-3.7,3.7l12.1,13.7V254.7z"/>
	<path class="st2" d="M291.7,372l-6.7,10.6l6.7,8.1c1.7,0,3.5-0.4,5-1.3l64.9-37.5c3.1-1.8,5-5.1,5-8.7v-8.7L301.7,372
		C298.6,373.8,294.8,373.8,291.7,372L291.7,372z"/>
	<path class="st2" d="M366.7,268.3c0-1.8-0.5-3.5-1.3-5s-2.1-2.8-3.7-3.7l-75,43.3l-56.6-32.7l-6.7,67.2c0,3.6,1.9,6.9,5,8.7
		l63.3,25.9v-60.5L366.7,268.3z"/>
	<path class="st3" d="M235.1,339.4c-3.1-1.8-5-5.1-5-8.7v-60.5l-12.1-7c-0.9,1.5-1.3,3.2-1.3,5v75c0,3.6,1.9,6.9,5,8.7l64.9,37.5
		c1.6,0.9,3.3,1.3,5,1.3V372L235.1,339.4z"/>
</g>
<g>
	<path class="st1" d="M323.7,148l-64.9-37.5c-3.1-1.8-6.9-1.8-10.1,0l-56.6,32.7l-6.7,28.9l61.6,95.1c3.1,1.8,6.9,1.8,10.1,0
		l71.6-44.2v-66.3C328.7,155,325.2,148.9,323.7,148L323.7,148z"/>
	<path class="st2" d="M192.1,143.2l-8.4,4.8c-1.6,0.9-2.8,2.2-3.7,3.7l12.1,13.7V143.2z"/>
	<path class="st2" d="M253.7,260.5l-6.7,10.6l6.7,8.1c1.7,0,3.5-0.4,5-1.3l64.9-37.5c3.1-1.8,5-5.1,5-8.7V223l-64.9,37.5
		C260.6,262.3,256.8,262.3,253.7,260.5L253.7,260.5z"/>
	<path class="st2" d="M328.7,156.7c0-1.8-0.5-3.5-1.3-5s-2.1-2.8-3.7-3.7l-75,43.3l-56.6-32.7l-6.7,67.2c0,3.6,1.9,6.9,5,8.7
		l63.3,25.9V200L328.7,156.7z"/>
	<path class="st3" d="M197.1,227.9c-3.1-1.8-5-5.1-5-8.7v-60.5l-12.1-7c-0.9,1.5-1.3,3.2-1.3,5v75c0,3.6,1.9,6.9,5,8.7l64.9,37.5
		c1.6,0.9,3.3,1.3,5,1.3v-18.8L197.1,227.9z"/>
</g>
</svg>
