<?xml version="1.0" encoding="utf-8"?>
<!-- Generator: Adobe Illustrator 25.2.1, SVG Export Plug-In . SVG Version: 6.00 Build 0)  -->
<svg version="1.1" xmlns="http://www.w3.org/2000/svg" xmlns:xlink="http://www.w3.org/1999/xlink" x="0px" y="0px"
	 viewBox="0 0 50 50" style="enable-background:new 0 0 50 50;" xml:space="preserve">
<style type="text/css">
	.st0{display:none;}
	.st1{display:inline;}
	.st2{fill:#005A5C;}
	.st3{fill:#00A23D;}
	.st4{display:inline;fill:#005A5C;}
	.st5{fill:#FFFFFF;}
</style>
<g id="Calque_4">
</g>
<g id="LOTTERY" class="st0">
	<g class="st1">
		<path class="st2" d="M24.3,8v4.9c-0.5,0.1-1,0.3-1.4,0.6l-4.3-4.3C20,7.8,21.7,7,23.7,6.8L24.3,8z M27.1,16.1c0,1.2-1,2.2-2.2,2.2
			s-2.2-1-2.2-2.2s1-2.2,2.2-2.2C26.1,13.9,27.1,14.9,27.1,16.1z M17.8,9.9l4.3,4.3c-0.3,0.4-0.5,0.9-0.6,1.4h-6.1
			C15.6,13.4,16.4,11.4,17.8,9.9z M21.6,16.7c0.1,0.5,0.3,1,0.6,1.4l-4.3,4.3c-1.4-1.5-2.2-3.5-2.4-5.7L21.6,16.7L21.6,16.7z
			 M22.9,18.8c0.4,0.3,0.9,0.5,1.4,0.6v6.1c-2.2-0.1-4.2-1-5.7-2.4L22.9,18.8z M25.4,19.4c0.5-0.1,1-0.3,1.4-0.6l4.3,4.3
			c-1.5,1.4-3.5,2.2-5.7,2.4V19.4z M31.9,22.4l-4.3-4.3c0.3-0.4,0.5-0.9,0.6-1.4h6.1C34.1,18.9,33.2,20.8,31.9,22.4L31.9,22.4z
			 M28.1,15.6c-0.1-0.5-0.3-1-0.6-1.4l4.3-4.3c1.4,1.5,2.2,3.5,2.4,5.7H28.1z M26.8,13.4c-0.4-0.3-0.9-0.5-1.4-0.6V8L26,6.8
			c2,0.2,3.7,1.1,5.1,2.3L26.8,13.4z M26.7,2.8l-1.9,3.7L23,2.8H26.7z M32,33.3c0,0.3-0.2,0.6-0.6,0.6H18.2c-0.3,0-0.6-0.2-0.6-0.6
			c0-0.3,0.2-0.6,0.6-0.6h13.3C31.8,32.8,32,33,32,33.3z M28.7,31.6H21v-3.4c1.2,0.4,2.5,0.6,3.9,0.6s2.7-0.2,3.9-0.6V31.6z
			 M24.8,27.8c-6.4,0-11.6-5.2-11.6-11.7c0-5.6,4-10.4,9.4-11.5l0.6,1.1c-5,0.8-8.9,5.2-8.9,10.4c0,5.8,4.7,10.5,10.5,10.5
			s10.5-4.7,10.5-10.5c0-5.2-3.8-9.6-8.9-10.4l0.6-1.1c5.4,1.1,9.4,5.9,9.4,11.5C36.5,22.5,31.3,27.8,24.8,27.8L24.8,27.8z"/>
		<path class="st2" d="M10.6,1.7l-0.1-0.5l-0.1,0.5C10,2.7,9.3,3.6,8.2,3.9c1,0.3,1.8,1.2,2.1,2.3l0.1,0.5l0.1-0.5
			c0.3-1.1,1.1-1.9,2.1-2.3C11.6,3.6,10.8,2.7,10.6,1.7z"/>
		<path class="st2" d="M39.4,3.9l-0.1-0.5l-0.1,0.5C38.9,5,38.1,5.8,37,6.2c1,0.3,1.8,1.2,2.1,2.3l0.1,0.5l0.1-0.5
			c0.3-1.1,1.1-1.9,2.1-2.3C40.4,5.8,39.6,5,39.4,3.9z"/>
	</g>
	<g class="st1">
		<path class="st3" d="M3.4,36.3h2.1V41h2.8v1.6h-5V36.3z"/>
		<path class="st3" d="M8.6,39.5c0-1.9,1.5-3.3,3.6-3.3c2.1,0,3.6,1.4,3.6,3.3c0,1.9-1.5,3.3-3.6,3.3C10.1,42.8,8.6,41.4,8.6,39.5z
			 M13.6,39.5c0-1-0.6-1.6-1.4-1.6c-0.8,0-1.4,0.6-1.4,1.6c0,1,0.6,1.6,1.4,1.6C13,41.1,13.6,40.5,13.6,39.5z"/>
		<path class="st3" d="M17.8,38H16v-1.6h5.8V38h-1.8v4.7h-2.1V38z"/>
		<path class="st3" d="M23.8,38h-1.8v-1.6h5.8V38h-1.8v4.7h-2.1V38z"/>
		<path class="st3" d="M33.5,41v1.6h-5.2v-6.3h5.1v1.6h-3v0.7H33v1.5h-2.7V41H33.5z"/>
		<path class="st3" d="M37.1,41.1h-0.6v1.6h-2.1v-6.3h3c1.8,0,2.9,0.9,2.9,2.4c0,0.9-0.4,1.6-1.2,2l1.3,1.9h-2.3L37.1,41.1z
			 M37.2,38h-0.8v1.5h0.8c0.6,0,0.9-0.3,0.9-0.7C38.1,38.3,37.8,38,37.2,38z"/>
		<path class="st3" d="M44.7,40.4v2.3h-2.1v-2.3l-2.4-4h2.2l1.3,2.2l1.3-2.2h2.1L44.7,40.4z"/>
	</g>
</g>
<g id="SWAP" class="st0">
	<g class="st1">
		<path class="st2" d="M14.1,15.5c0.4,0.4,1.1,0.4,1.5,0l1.4-1.4c0.4-0.4,0.4-1.1,0-1.5l-1.4-1.4h18.9c1.8,0,3.2,1.4,3.2,3.2
			c0,0.9,0.7,1.6,1.6,1.6h1.1c0.9,0,1.6-0.7,1.6-1.6c0-4.1-3.3-7.5-7.5-7.5H15.6L17,5.6c0.4-0.4,0.4-1.1,0-1.5l-1.4-1.4
			c-0.4-0.4-1.1-0.4-1.5,0l-6,6c-0.2,0.2-0.2,0.5,0,0.8L14.1,15.5z"/>
		<path class="st2" d="M35.9,20.8c-0.4-0.4-1.1-0.4-1.5,0L33,22.2c-0.4,0.4-0.4,1.1,0,1.5l1.4,1.4H15.4c-1.8,0-3.2-1.4-3.2-3.2
			c0-0.9-0.7-1.6-1.6-1.6H9.6C8.7,20.2,8,21,8,21.8c0,4.1,3.3,7.5,7.5,7.5h18.9L33,30.7c-0.4,0.4-0.4,1.1,0,1.5l1.4,1.4
			c0.4,0.4,1.1,0.4,1.5,0l6-6c0.2-0.2,0.2-0.5,0-0.8L35.9,20.8z"/>
	</g>
	<g class="st1">
		<path class="st3" d="M9.9,42.1l0.7-1.5c0.6,0.4,1.4,0.6,2.1,0.6c0.6,0,0.8-0.1,0.8-0.3c0-0.8-3.5-0.2-3.5-2.5c0-1.2,1-2.1,2.9-2.1
			c0.8,0,1.7,0.2,2.4,0.5l-0.6,1.5c-0.6-0.3-1.2-0.5-1.8-0.5c-0.6,0-0.8,0.2-0.8,0.4c0,0.8,3.5,0.1,3.5,2.4c0,1.2-1,2.1-2.9,2.1
			C11.6,42.8,10.6,42.5,9.9,42.1z"/>
		<path class="st3" d="M26.5,36.3l-2,6.3h-2.3l-1-3.4l-1.1,3.4h-2.3l-2-6.3H18l1.1,3.6l1.2-3.6h2l1.1,3.6l1.2-3.6H26.5z"/>
		<path class="st3" d="M31,41.5h-2.4l-0.4,1.1h-2.2l2.8-6.3h2.1l2.8,6.3h-2.2L31,41.5z M30.5,40l-0.6-1.6L29.2,40H30.5z"/>
		<path class="st3" d="M39.9,38.7c0,1.5-1.1,2.4-2.9,2.4h-0.9v1.5H34v-6.3h3C38.8,36.3,39.9,37.3,39.9,38.7z M37.8,38.7
			c0-0.5-0.3-0.7-0.9-0.7h-0.8v1.5h0.8C37.5,39.5,37.8,39.2,37.8,38.7z"/>
	</g>
</g>
<g id="VOTE" class="st0">
	<g class="st1">
		<path class="st3" d="M19.2,36.3l-2.7,6.3h-2.1l-2.7-6.3H14l1.5,3.7l1.5-3.7H19.2z"/>
		<path class="st3" d="M19,39.5c0-1.9,1.5-3.3,3.6-3.3c2.1,0,3.6,1.4,3.6,3.3c0,1.9-1.5,3.3-3.6,3.3C20.5,42.8,19,41.4,19,39.5z
			 M24,39.5c0-1-0.6-1.6-1.4-1.6c-0.8,0-1.4,0.6-1.4,1.6c0,1,0.6,1.6,1.4,1.6C23.4,41.1,24,40.5,24,39.5z"/>
		<path class="st3" d="M28.2,38h-1.8v-1.6h5.8V38h-1.8v4.7h-2.1V38z"/>
		<path class="st3" d="M37.9,41v1.6h-5.2v-6.3h5.1v1.6h-3v0.7h2.7v1.5h-2.7V41H37.9z"/>
	</g>
	<g class="st1">
		<path class="st2" d="M24.2,17.2h1.7l8.3-8.3l-6.6-6.6l-9.1,9.1L24.2,17.2z M25,11.6l3.2-3.3l1.3,1.3L25,14.2l-2.7-2.6l1.3-1.3
			L25,11.6z"/>
		<path class="st2" d="M31.3,14.5l-2.8,2.8h3v1.8H18.6v-1.8h3l-2.8-2.8h-4.9v7.4h22.1v-7.4L31.3,14.5z"/>
		<path class="st2" d="M13.9,23.7h22.1v10.2H13.9L13.9,23.7z"/>
	</g>
</g>
<g id="VAULT" class="st0">
	<path class="st4" d="M8.1,28.6h1.1v2.1c0,1.7,1.4,3.2,3.2,3.2h27.4c1.7,0,3.2-1.4,3.2-3.2V5.5c0-1.7-1.4-3.2-3.2-3.2H12.3
		c-1.7,0-3.2,1.4-3.2,3.2v2.1H8.1c-0.6,0-1.1,0.5-1.1,1.1V15c0,0.6,0.5,1.1,1.1,1.1h1.1v4.2H8.1c-0.6,0-1.1,0.5-1.1,1.1v6.3
		C7.1,28.1,7.5,28.6,8.1,28.6z M36.6,16c0-0.6,0.5-1.1,1.1-1.1c0.6,0,1.1,0.5,1.1,1.1v4.2c0,0.6-0.5,1.1-1.1,1.1
		c-0.6,0-1.1-0.5-1.1-1.1V16z M20.8,18.1c0-1.1,0.3-2.1,0.9-2.9l-4.8-4.8c-0.4-0.4-0.4-1.1,0-1.5c0.4-0.4,1.1-0.4,1.5,0l4.8,4.8
		c0.8-0.6,1.8-0.9,2.9-0.9s2.1,0.3,2.9,0.9L33.7,9c0.4-0.4,1.1-0.4,1.5,0c0.4,0.4,0.4,1.1,0,1.5l-4.8,4.8c0.6,0.8,0.9,1.8,0.9,2.9
		c0,1.1-0.3,2.1-0.9,2.9l4.8,4.8c0.4,0.4,0.4,1.1,0,1.5c-0.2,0.2-0.5,0.3-0.7,0.3c-0.3,0-0.5-0.1-0.7-0.3l-4.8-4.8
		c-0.8,0.6-1.8,0.9-2.9,0.9S24,23,23.2,22.5l-4.8,4.8c-0.2,0.2-0.5,0.3-0.7,0.3s-0.5-0.1-0.7-0.3c-0.4-0.4-0.4-1.1,0-1.5l4.8-4.8
		C21.1,20.2,20.8,19.2,20.8,18.1z"/>
	<g class="st1">
		<path class="st3" d="M13.5,36.3l-2.7,6.3H8.8l-2.7-6.3h2.3L9.9,40l1.5-3.7H13.5z"/>
		<path class="st3" d="M17.8,41.5h-2.4L15,42.6h-2.2l2.8-6.3h2.1l2.8,6.3h-2.2L17.8,41.5z M17.2,40l-0.6-1.6L16,40H17.2z"/>
		<path class="st3" d="M20.5,39.8v-3.5h2.1v3.4c0,1,0.4,1.3,1,1.3c0.6,0,1-0.4,1-1.3v-3.4h2.1v3.5c0,1.9-1.1,3-3.1,3
			C21.7,42.8,20.5,41.7,20.5,39.8z"/>
		<path class="st3" d="M27.7,36.3h2.1V41h2.8v1.6h-5V36.3z"/>
		<path class="st3" d="M34,38h-1.8v-1.6H38V38h-1.8v4.7H34V38z"/>
		<path class="st3" d="M38.1,42.1l0.7-1.5c0.6,0.4,1.4,0.6,2.1,0.6c0.6,0,0.8-0.1,0.8-0.3c0-0.8-3.5-0.2-3.5-2.5
			c0-1.2,1-2.1,2.9-2.1c0.8,0,1.7,0.2,2.4,0.5l-0.6,1.5c-0.6-0.3-1.2-0.5-1.8-0.5c-0.6,0-0.8,0.2-0.8,0.4c0,0.8,3.5,0.1,3.5,2.4
			c0,1.2-1,2.1-2.9,2.1C39.8,42.8,38.7,42.5,38.1,42.1z"/>
	</g>
</g>
<g id="Calque_7">
	<g>
		<path class="st3" d="M3.7,37.5H2V36h5.2v1.5H5.6v4.1H3.7V37.5z"/>
		<path class="st3" d="M12.4,40.2v1.4H7.7V36h4.5v1.4H9.6v0.7h2.4v1.4H9.6v0.7H12.4z"/>
		<path class="st3" d="M16.9,40.7h-2.1l-0.4,1h-1.9l2.4-5.6h1.9l2.4,5.6h-2L16.9,40.7z M16.4,39.3l-0.5-1.4l-0.5,1.4H16.4z"/>
		<path class="st3" d="M24.8,38.2c0,1.3-1,2.1-2.6,2.1h-0.8v1.4h-1.9V36h2.7C23.8,36,24.8,36.9,24.8,38.2z M22.9,38.2
			c0-0.4-0.2-0.7-0.8-0.7h-0.7v1.3h0.7C22.6,38.8,22.9,38.6,22.9,38.2z"/>
		<path class="st3" d="M28.9,40.7h-2.1l-0.4,1h-1.9L27,36h1.9l2.4,5.6h-2L28.9,40.7z M28.4,39.3l-0.5-1.4l-0.5,1.4H28.4z"/>
		<path class="st3" d="M34,40.2h-0.5v1.4h-1.9V36h2.7c1.6,0,2.6,0.8,2.6,2.1c0,0.8-0.4,1.4-1.1,1.8l1.2,1.7h-2L34,40.2z M34.1,37.5
			h-0.7v1.3h0.7c0.5,0,0.8-0.2,0.8-0.7C34.9,37.7,34.7,37.5,34.1,37.5z"/>
		<path class="st3" d="M38.7,37.5H37V36h5.2v1.5h-1.6v4.1h-1.9V37.5z"/>
		<path class="st3" d="M45.8,39.6v2H44v-2.1L41.8,36h2L45,38l1.2-1.9H48L45.8,39.6z"/>
	</g>
	<g>
		<path class="st2" d="M16,15.7l-3,8.1v0c0.7,3,2.4,5.6,4.7,7.5l3.8-1.4C17.4,26.2,15.4,20.9,16,15.7z"/>
		<path class="st2" d="M12,26.4l-2.3,6.2c-0.3,0.7,0.4,1.5,1.2,1.2l4.9-1.8C14.1,30.4,12.8,28.5,12,26.4L12,26.4z"/>
		<path class="st2" d="M22.5,14.9L19,11.5c-2.8,6.3-0.9,13.5,4.4,17.6l3.7-1.4C23.9,24.4,22.1,19.7,22.5,14.9L22.5,14.9z"/>
		<path class="st2" d="M24.3,16.7c0.1,3.9,1.8,7.6,4.7,10.3h0l2.7-1c0.6-0.2,0.8-1,0.3-1.5L24.3,16.7z"/>
		<g>
			<path class="st2" d="M31,19.6c0.4,0.4,0.9,0.4,1.3,0c3.5-3.5,6.9-2.4,6.9-2.4c0.5,0.2,1-0.1,1.2-0.6c0.2-0.5-0.1-1-0.6-1.2
				c-0.2-0.1-4.5-1.4-8.8,2.8C30.7,18.7,30.7,19.2,31,19.6z"/>
		</g>
		<path class="st2" d="M25.1,12.4C29.4,8.2,28,3.8,28,3.6c-0.2-0.5-0.7-0.7-1.2-0.6c-0.5,0.2-0.7,0.7-0.6,1.2c0,0,1.1,3.4-2.4,6.9
			c-0.4,0.4-0.4,0.9,0,1.3C24.2,12.8,24.8,12.8,25.1,12.4L25.1,12.4z"/>
		<path class="st2" d="M27.1,14.4c-0.4,0.4-0.4,0.9,0,1.3c0.4,0.4,0.9,0.4,1.3,0c0.5-0.2,2,0.7,2.8-0.2c0.8-0.8-0.1-2.3,0.2-2.8
			c0.5-0.2,2,0.6,2.8-0.2c0.8-0.8-0.1-2.3,0.2-2.8c0.5-0.2,2,0.6,2.8-0.2c0.8-0.8-0.1-2.3,0.2-2.8c0.5-0.2,2,0.6,2.8-0.2
			c0.8-0.8-0.1-2.3,0.2-2.8c0.4-0.4,0.4-0.9,0-1.3c-0.4-0.4-0.9-0.4-1.3,0c-0.7,0.7-0.6,1.8-0.4,2.5c-0.7-0.1-1.8-0.3-2.5,0.4
			c-0.7,0.7-0.6,1.8-0.4,2.5c-0.7-0.1-1.8-0.3-2.5,0.4c-0.7,0.7-0.6,1.8-0.4,2.5c-0.7-0.1-1.8-0.3-2.5,0.4c-0.7,0.7-0.6,1.8-0.4,2.5
			C28.9,13.8,27.8,13.7,27.1,14.4L27.1,14.4z"/>
		<path class="st2" d="M32.3,6.6c0.4-0.4,0.4-0.9,0-1.3c-0.4-0.4-0.9-0.4-1.3,0c-0.4,0.4-0.4,0.9,0,1.3C31.4,6.9,32,6.9,32.3,6.6z"
			/>
		<circle class="st2" cx="38.2" cy="12.4" r="0.9"/>
		<path class="st2" d="M36.2,20.9c-0.4,0.4-0.4,0.9,0,1.3c0.4,0.4,0.9,0.4,1.3,0c0.4-0.4,0.4-0.9,0-1.3
			C37.2,20.5,36.6,20.5,36.2,20.9z"/>
		<path class="st2" d="M23.2,7.9c0.4-0.4,0.4-0.9,0-1.3c-0.4-0.4-0.9-0.4-1.3,0c-0.4,0.4-0.4,0.9,0,1.3C22.2,8.2,22.8,8.2,23.2,7.9z
			"/>
	</g>
</g>
<g id="Coming_Soon">
	<g>
		<path class="st2" d="M40.6,46.6L9.9,48.8C8,49,6.3,47.5,6.1,45.6l0,0C6,43.7,7.5,42,9.4,41.9l30.7-2.2c1.9-0.1,3.6,1.3,3.7,3.2v0
			C44,44.8,42.5,46.5,40.6,46.6z"/>
		<g>
			<path class="st5" d="M8.1,45.6C8,44.7,8.7,44,9.6,43.9c0.5,0,1,0.1,1.3,0.4l-0.4,0.4c-0.2-0.2-0.5-0.3-0.8-0.3
				c-0.6,0-0.9,0.5-0.9,1c0,0.6,0.5,0.9,1,0.9c0.3,0,0.6-0.2,0.7-0.4l0.5,0.4c-0.3,0.4-0.7,0.6-1.2,0.6C8.9,47.1,8.2,46.5,8.1,45.6z
				"/>
			<path class="st5" d="M11.2,45.4c-0.1-0.9,0.6-1.6,1.5-1.7c1-0.1,1.7,0.5,1.8,1.4c0.1,0.9-0.6,1.6-1.5,1.7
				C12,46.9,11.3,46.3,11.2,45.4z M13.8,45.2c0-0.6-0.5-0.9-1-0.9c-0.5,0-0.9,0.5-0.9,1c0,0.6,0.5,0.9,1,0.9
				C13.5,46.2,13.9,45.8,13.8,45.2z"/>
			<path class="st5" d="M17.9,46.4l-0.1-1.8L17,46.2l-0.3,0l-1-1.4l0.1,1.8l-0.7,0l-0.2-3l0.6,0l1.3,1.8l1-2l0.6,0l0.2,3L17.9,46.4z
				"/>
			<path class="st5" d="M19.1,43.3l0.7-0.1l0.2,3l-0.7,0.1L19.1,43.3z"/>
			<path class="st5" d="M23.3,43l0.2,3l-0.6,0l-1.6-1.7l0.1,1.8l-0.7,0l-0.2-3l0.6,0l1.6,1.7L22.6,43L23.3,43z"/>
			<path class="st5" d="M26.2,44.2l0.6,0l0.1,1.2c-0.3,0.3-0.8,0.4-1.2,0.5c-1,0.1-1.7-0.5-1.8-1.5c-0.1-0.9,0.6-1.6,1.6-1.7
				c0.5,0,1,0.1,1.3,0.4l-0.4,0.4c-0.2-0.2-0.5-0.3-0.8-0.3c-0.6,0-1,0.5-0.9,1c0,0.6,0.5,0.9,1.1,0.9c0.2,0,0.4-0.1,0.5-0.2
				L26.2,44.2z"/>
			<path class="st5" d="M28.5,45.3l0.2-0.5c0.3,0.2,0.7,0.3,1,0.2c0.4,0,0.6-0.2,0.6-0.4c0-0.6-1.8-0.1-1.9-1.2c0-0.5,0.3-1,1.2-1
				c0.4,0,0.8,0,1.1,0.2l-0.2,0.5C30.3,43.1,30,43,29.7,43c-0.4,0-0.6,0.2-0.6,0.4c0,0.6,1.8,0,1.9,1.2c0,0.5-0.4,1-1.2,1
				C29.3,45.6,28.8,45.5,28.5,45.3z"/>
			<path class="st5" d="M31.2,43.9c-0.1-0.9,0.6-1.6,1.5-1.7c1-0.1,1.7,0.5,1.8,1.4c0.1,0.9-0.6,1.6-1.5,1.7
				C32.1,45.4,31.3,44.8,31.2,43.9z M33.8,43.7c0-0.6-0.5-0.9-1-0.9c-0.5,0-0.9,0.5-0.9,1c0,0.6,0.5,0.9,1,0.9
				C33.5,44.7,33.9,44.3,33.8,43.7z"/>
			<path class="st5" d="M34.9,43.7c-0.1-0.9,0.6-1.6,1.5-1.7c1-0.1,1.7,0.5,1.8,1.4c0.1,0.9-0.6,1.6-1.5,1.7
				C35.7,45.2,35,44.6,34.9,43.7z M37.5,43.5c0-0.6-0.5-0.9-1-0.9c-0.5,0-0.9,0.5-0.9,1c0,0.6,0.5,0.9,1,0.9
				C37.2,44.5,37.5,44.1,37.5,43.5z"/>
			<path class="st5" d="M41.4,41.7l0.2,3l-0.6,0L39.4,43l0.1,1.8l-0.7,0l-0.2-3l0.6,0l1.6,1.7l-0.1-1.8L41.4,41.7z"/>
		</g>
	</g>
</g>
</svg>
